<svg width="18" height="18" viewBox="0 0 18 18" fill="none" xmlns="http://www.w3.org/2000/svg">
<path d="M9 18C7.44901 18 6.1875 16.7385 6.1875 15.1875C6.1875 14.877 6.4395 14.625 6.75 14.625C7.0605 14.625 7.3125 14.877 7.3125 15.1875C7.3125 16.1183 8.06932 16.875 9 16.875C9.93082 16.875 10.6875 16.1183 10.6875 15.1875C10.6875 14.877 10.9395 14.625 11.25 14.625C11.5605 14.625 11.8125 14.877 11.8125 15.1875C11.8125 16.7385 10.551 18 9 18Z" fill="#3FA1EA"/>
<path d="M15.1875 15.75H2.81245C2.08873 15.75 1.5 15.1613 1.5 14.4375C1.5 14.0534 1.66727 13.6898 1.95895 13.44C3.09975 12.4762 3.75 11.0753 3.75 9.59106V7.49995C3.75 4.60506 6.10506 2.25 8.99995 2.25C11.895 2.25 14.25 4.60506 14.25 7.49995V9.59106C14.25 11.0753 14.9003 12.4762 16.0335 13.4348C16.3328 13.6898 16.5 14.0534 16.5 14.4375C16.5 15.1613 15.9113 15.75 15.1875 15.75Z" fill="#3FA1EA"/>
<path d="M9 3.375C8.6895 3.375 8.4375 3.123 8.4375 2.8125V0.5625C8.4375 0.251999 8.6895 0 9 0C9.3105 0 9.5625 0.251999 9.5625 0.5625V2.8125C9.5625 3.123 9.3105 3.375 9 3.375Z" fill="#3FA1EA"/>
</svg>
