<svg width="16" height="18" viewBox="0 0 16 18" fill="none" xmlns="http://www.w3.org/2000/svg">
<path fill-rule="evenodd" clip-rule="evenodd" d="M11.5 1.2H4C2.59167 1.2 1.45 2.34167 1.45 3.75V14.25C1.45 15.6583 2.59167 16.8 4 16.8H11.5C12.9083 16.8 14.05 15.6583 14.05 14.25V3.75C14.05 2.34167 12.9083 1.2 11.5 1.2ZM4 0C1.92893 0 0.25 1.67893 0.25 3.75V14.25C0.25 16.3211 1.92893 18 4 18H11.5C13.5711 18 15.25 16.3211 15.25 14.25V3.75C15.25 1.67893 13.5711 0 11.5 0H4Z" fill="black"/>
<path d="M4.32751 7.17432C3.31747 7.17432 2.5 7.99178 2.5 9.00183C2.5 10.0119 3.31747 10.8293 4.32751 10.8293C5.33755 10.8293 6.15502 10.0119 6.15502 9.00183C6.15502 7.99178 5.33755 7.17432 4.32751 7.17432ZM4.32751 10.0433C3.74978 10.0433 3.28603 9.57563 3.28603 9.00183C3.28603 8.4241 3.75371 7.96034 4.32751 7.96034C4.90131 7.96034 5.369 8.42803 5.369 9.00183C5.369 9.57563 4.90131 10.0433 4.32751 10.0433Z" fill="black"/>
<rect x="7" y="3.75" width="6" height="1.125" rx="0.5625" fill="black"/>
<rect x="7" y="8.25" width="6" height="1.125" rx="0.5625" fill="black"/>
<rect x="7" y="13.5" width="6" height="1.125" rx="0.5625" fill="black"/>
<path d="M4.32751 2.25C3.31747 2.25 2.5 3.06747 2.5 4.07751C2.5 5.08756 3.31747 5.90502 4.32751 5.90502C5.33755 5.90502 6.15502 5.08756 6.15502 4.07751C6.15502 3.0714 5.33755 2.25393 4.32751 2.25ZM4.32751 5.12293C3.74978 5.12293 3.28603 4.65524 3.28603 4.08144C3.28603 3.50764 3.75371 3.03996 4.32751 3.03996C4.90524 3.03996 5.369 3.50764 5.369 4.08144C5.369 4.65524 4.90131 5.12293 4.32751 5.12293Z" fill="black"/>
<path d="M4.32751 12.0952C3.31747 12.0952 2.5 12.9127 2.5 13.9227C2.5 14.9328 3.31747 15.7502 4.32751 15.7502C5.33755 15.7502 6.15502 14.9328 6.15502 13.9227C6.15502 12.9166 5.33755 12.0952 4.32751 12.0952ZM4.32751 14.9681C3.74978 14.9681 3.28603 14.5005 3.28603 13.9267C3.28603 13.3489 3.75371 12.8852 4.32751 12.8852C4.90524 12.8852 5.369 13.3529 5.369 13.9267C5.369 14.5005 4.90131 14.9681 4.32751 14.9681Z" fill="black"/>
</svg>
