<svg width="16" height="18" viewBox="0 0 16 18" fill="none" xmlns="http://www.w3.org/2000/svg">
<path fill-rule="evenodd" clip-rule="evenodd" d="M11.5 1.2H4C2.59167 1.2 1.45 2.34167 1.45 3.75V14.25C1.45 15.6583 2.59167 16.8 4 16.8H11.5C12.9083 16.8 14.05 15.6583 14.05 14.25V3.75C14.05 2.34167 12.9083 1.2 11.5 1.2ZM4 0C1.92893 0 0.25 1.67893 0.25 3.75V14.25C0.25 16.3211 1.92893 18 4 18H11.5C13.5711 18 15.25 16.3211 15.25 14.25V3.75C15.25 1.67893 13.5711 0 11.5 0H4Z" fill="#3FA1EA"/>
<path d="M4.32751 7.17432C3.31747 7.17432 2.5 7.99178 2.5 9.00183C2.5 10.0119 3.31747 10.8293 4.32751 10.8293C5.33755 10.8293 6.15502 10.0119 6.15502 9.00183C6.15502 7.99178 5.33755 7.17432 4.32751 7.17432Z" fill="#3FA1EA"/>
<rect x="7" y="3.75" width="6" height="1.125" rx="0.5625" fill="#3FA1EA"/>
<rect x="7" y="8.25" width="6" height="1.125" rx="0.5625" fill="#3FA1EA"/>
<rect x="7" y="13.5" width="6" height="1.125" rx="0.5625" fill="#3FA1EA"/>
<path d="M4.32751 2.25C3.31747 2.25 2.5 3.06747 2.5 4.07751C2.5 5.08755 3.31747 5.90502 4.32751 5.90502C5.33755 5.90502 6.15502 5.08755 6.15502 4.07751C6.15502 3.0714 5.33755 2.25393 4.32751 2.25Z" fill="#3FA1EA"/>
<path d="M4.32751 12.0952C3.31747 12.0952 2.5 12.9127 2.5 13.9227C2.5 14.9328 3.31747 15.7502 4.32751 15.7502C5.33755 15.7502 6.15502 14.9328 6.15502 13.9227C6.15502 12.9166 5.33755 12.0952 4.32751 12.0952Z" fill="#3FA1EA"/>
</svg>
