<svg width="18" height="18" viewBox="0 0 18 18" fill="none" xmlns="http://www.w3.org/2000/svg">
<path d="M17.8194 8.54508L16.5331 7.25996L9.45525 0.188242C9.20401 -0.0627472 8.79668 -0.0627472 8.54543 0.188242L1.46751 7.25996L0.180633 8.54575C-0.066239 8.80115 -0.0591888 9.20813 0.19643 9.45478C0.44579 9.69541 0.841094 9.69541 1.09045 9.45478L1.27832 9.26576V17.3571C1.27832 17.7122 1.5664 18 1.92178 18H16.0776C16.433 18 16.721 17.7122 16.721 17.3571V9.26576L16.9095 9.45414C17.1652 9.7008 17.5725 9.69372 17.8194 9.43836C18.0602 9.18922 18.0602 8.79422 17.8194 8.54508ZM10.93 16.7142H7.06937V11.5711H10.93V16.7142ZM15.4341 16.7142H12.2169V10.9283C12.2169 10.5732 11.9288 10.2854 11.5735 10.2854H6.42591C6.07053 10.2854 5.78245 10.5732 5.78245 10.9283V16.7142H2.56524V7.98L8.99966 1.55114L15.4341 7.98V16.7142Z" fill="black"/>
</svg>
