<svg width="18" height="18" viewBox="0 0 18 18" fill="none" xmlns="http://www.w3.org/2000/svg">
<path fill-rule="evenodd" clip-rule="evenodd" d="M16.5187 7.25996L17.8039 8.54508C18.0445 8.79422 18.0445 9.18922 17.8039 9.43836C17.5572 9.69372 17.1502 9.7008 16.8948 9.45414L16.7065 9.26576V17.3571C16.7065 17.7122 16.4187 18 16.0636 18H1.92011C1.56504 18 1.27721 17.7122 1.27721 17.3571V9.26576L1.0895 9.45479C0.840362 9.69541 0.445402 9.69541 0.196259 9.45479C-0.0591373 9.20813 -0.0661814 8.80115 0.180475 8.54576L1.46623 7.25996L8.53799 0.188242C8.78902 -0.0627472 9.196 -0.0627472 9.44702 0.188242L16.5187 7.25996ZM12.2063 16.7142H15.4207V7.98L8.99183 1.55114L2.563 7.98V16.7142H5.77742V10.9283C5.77742 10.5732 6.06525 10.2854 6.42031 10.2854H11.5634C11.9184 10.2854 12.2063 10.5732 12.2063 10.9283V16.7142Z" fill="#3FA1EA"/>
</svg>
