<svg width="18" height="18" viewBox="0 0 18 18" fill="none" xmlns="http://www.w3.org/2000/svg">
<path d="M8.78742 9.71631C3.60443 9.71631 0.75 12.1682 0.75 16.6205C0.75 16.9682 1.03183 17.2501 1.37956 17.2501H16.1952C16.543 17.2501 16.8248 16.9682 16.8248 16.6205C16.8248 12.1685 13.9704 9.71631 8.78742 9.71631ZM2.03202 15.991C2.27966 12.662 4.54921 10.9755 8.78742 10.9755C13.0256 10.9755 15.2952 12.662 15.543 15.991H2.03202Z" fill="black"/>
<path d="M8.78741 0C6.40661 0 4.61133 1.8314 4.61133 4.25984C4.61133 6.7594 6.48471 8.79268 8.78741 8.79268C11.0901 8.79268 12.9635 6.7594 12.9635 4.26004C12.9635 1.8314 11.1682 0 8.78741 0ZM8.78741 7.53376C7.17888 7.53376 5.87044 6.06519 5.87044 4.26004C5.87044 2.52119 7.09725 1.25911 8.78741 1.25911C10.4505 1.25911 11.7044 2.54909 11.7044 4.26004C11.7044 6.06519 10.3959 7.53376 8.78741 7.53376Z" fill="black"/>
</svg>
